<svg width="198" height="43" viewBox="0 0 198 43" fill="none" xmlns="http://www.w3.org/2000/svg">
<rect x="8" width="20" height="8" fill="white"/>
<rect x="15" y="21" width="13" height="8" fill="white"/>
<rect x="28" y="8" width="8" height="13" fill="white"/>
<rect y="21" width="8" height="22" fill="white"/>
<rect y="8" width="8" height="13" fill="white"/>
<rect x="8" y="29" width="7" height="7" fill="white"/>
<path d="M52 36.1601V7.88006H62.64C64.7733 7.88006 66.6133 8.21339 68.16 8.88006C69.7333 9.52006 70.9467 10.5467 71.8 11.9601C72.68 13.3734 73.12 15.2267 73.12 17.5201C73.12 19.7067 72.64 21.5334 71.68 23.0001C70.72 24.4667 69.4133 25.5734 67.76 26.3201C66.1067 27.0401 64.2133 27.4001 62.08 27.4001H57V36.1601H52ZM57 22.9201H62C63.84 22.9201 65.32 22.4801 66.44 21.6001C67.56 20.7201 68.12 19.3334 68.12 17.4401C68.12 15.7867 67.6533 14.5467 66.72 13.7201C65.7867 12.8667 64.3467 12.4401 62.4 12.4401H57V22.9201Z" fill="white"/>
<path d="M76.2594 36.1601V15.0801H81.1394V36.1601H76.2594ZM78.6994 12.6401C77.766 12.6401 77.0194 12.3601 76.4594 11.8001C75.8994 11.2401 75.6194 10.5067 75.6194 9.60006C75.6194 8.72006 75.9127 8.00006 76.4994 7.44006C77.086 6.85339 77.8194 6.56006 78.6994 6.56006C79.5527 6.56006 80.286 6.84006 80.8994 7.40006C81.5127 7.96006 81.8194 8.69339 81.8194 9.60006C81.8194 10.5067 81.526 11.2401 80.9394 11.8001C80.3527 12.3601 79.606 12.6401 78.6994 12.6401Z" fill="white"/>
<path d="M83.0288 36.1601L90.4688 25.4001L83.4288 15.0801H89.1088L93.6688 22.1601L98.1088 15.0801H103.669L96.6288 25.5201L104.189 36.1601H98.4688L93.4688 28.8801L88.4688 36.1601H83.0288Z" fill="white"/>
<path d="M115.115 36.4401C112.928 36.4401 111.062 35.9867 109.515 35.0801C107.995 34.1734 106.835 32.9201 106.035 31.3201C105.262 29.6934 104.875 27.8134 104.875 25.6801C104.875 23.5467 105.275 21.6667 106.075 20.0401C106.902 18.3867 108.075 17.0934 109.595 16.1601C111.142 15.2267 112.995 14.7601 115.155 14.7601C116.755 14.7601 118.155 15.0534 119.355 15.6401C120.555 16.2001 121.555 16.9734 122.355 17.9601C123.182 18.9467 123.795 20.0667 124.195 21.3201C124.595 22.5734 124.782 23.8934 124.755 25.2801C124.728 25.6001 124.702 25.9201 124.675 26.2401C124.648 26.5334 124.608 26.8534 124.555 27.2001H109.755C109.835 28.1334 110.075 28.9867 110.475 29.7601C110.902 30.5334 111.488 31.1467 112.235 31.6001C113.008 32.0534 113.968 32.2801 115.115 32.2801C115.782 32.2801 116.422 32.2001 117.035 32.0401C117.648 31.8534 118.182 31.5867 118.635 31.2401C119.115 30.8934 119.435 30.4534 119.595 29.9201H124.475C124.128 31.4401 123.488 32.6801 122.555 33.6401C121.622 34.6001 120.502 35.3067 119.195 35.7601C117.915 36.2134 116.555 36.4401 115.115 36.4401ZM109.835 23.5601H119.995C119.995 22.6801 119.795 21.8801 119.395 21.1601C118.995 20.4401 118.422 19.8801 117.675 19.4801C116.955 19.0534 116.075 18.8401 115.035 18.8401C113.915 18.8401 112.982 19.0667 112.235 19.5201C111.488 19.9734 110.915 20.5601 110.515 21.2801C110.115 22.0001 109.888 22.7601 109.835 23.5601Z" fill="white"/>
<path d="M127.844 36.1601V7.88006H132.724V36.1601H127.844Z" fill="white"/>
<path d="M137.453 36.1601V7.88006H148.093C150.226 7.88006 152.066 8.21339 153.613 8.88006C155.186 9.52006 156.4 10.5467 157.253 11.9601C158.133 13.3734 158.573 15.2267 158.573 17.5201C158.573 19.7067 158.093 21.5334 157.133 23.0001C156.173 24.4667 154.866 25.5734 153.213 26.3201C151.56 27.0401 149.666 27.4001 147.533 27.4001H142.453V36.1601H137.453ZM142.453 22.9201H147.453C149.293 22.9201 150.773 22.4801 151.893 21.6001C153.013 20.7201 153.573 19.3334 153.573 17.4401C153.573 15.7867 153.106 14.5467 152.173 13.7201C151.24 12.8667 149.8 12.4401 147.853 12.4401H142.453V22.9201Z" fill="white"/>
<path d="M161.712 36.1601V15.0801H166.592V36.1601H161.712ZM164.152 12.6401C163.219 12.6401 162.472 12.3601 161.912 11.8001C161.353 11.2401 161.072 10.5067 161.072 9.60006C161.072 8.72006 161.366 8.00006 161.952 7.44006C162.539 6.85339 163.272 6.56006 164.152 6.56006C165.006 6.56006 165.739 6.84006 166.353 7.40006C166.966 7.96006 167.272 8.69339 167.272 9.60006C167.272 10.5067 166.979 11.2401 166.392 11.8001C165.806 12.3601 165.059 12.6401 164.152 12.6401Z" fill="white"/>
<path d="M168.482 36.1601L175.922 25.4001L168.882 15.0801H174.562L179.122 22.1601L183.562 15.0801H189.122L182.082 25.5201L189.642 36.1601H183.922L178.922 28.8801L173.922 36.1601H168.482Z" fill="white"/>
<path d="M191.519 36.1601V15.0801H196.399V36.1601H191.519ZM193.959 12.6401C193.025 12.6401 192.279 12.3601 191.719 11.8001C191.159 11.2401 190.879 10.5067 190.879 9.60006C190.879 8.72006 191.172 8.00006 191.759 7.44006C192.345 6.85339 193.079 6.56006 193.959 6.56006C194.812 6.56006 195.545 6.84006 196.159 7.40006C196.772 7.96006 197.079 8.69339 197.079 9.60006C197.079 10.5067 196.785 11.2401 196.199 11.8001C195.612 12.3601 194.865 12.6401 193.959 12.6401Z" fill="white"/>
</svg>
